<svg width="19" height="17" viewBox="0 0 19 17" fill="none" xmlns="http://www.w3.org/2000/svg">
<path fill-rule="evenodd" clip-rule="evenodd" d="M9.49995 1.08594C6.7035 1.08594 3.90033 1.55861 2.88322 2.50071C2.03934 3.2823 1.75804 4.66308 1.66321 5.53732C1.66321 5.53732 1.65015 5.62371 1.65015 5.66087C1.65015 6.0037 1.94445 6.27865 2.30427 6.27865C2.34678 6.27865 3.92002 6.15816 4.86851 6.08404C4.89134 6.08091 4.91434 6.07785 4.93716 6.0717C5.29043 6.06248 5.57505 5.79059 5.57505 5.45392L5.57822 4.23679C5.57822 3.85993 5.90214 3.55716 6.3012 3.55716H12.6987C13.0978 3.55716 13.4218 3.8599 13.4218 4.23679L13.425 5.45392C13.425 5.79059 13.7095 6.06248 14.0628 6.0717C14.0854 6.07789 14.1085 6.08091 14.1315 6.08404C15.0801 6.15812 16.6533 6.27865 16.6957 6.27865C17.0553 6.27865 17.3499 6.0037 17.3499 5.66087C17.3499 5.62371 17.3368 5.53732 17.3368 5.53732C17.2419 4.66308 16.9609 3.28234 16.117 2.50071C15.0996 1.55861 12.2964 1.08594 9.49995 1.08594ZM9.49995 9.11752C8.7771 9.11752 8.19164 9.67043 8.19164 10.3531C8.19164 11.0358 8.7771 11.5887 9.49995 11.5887C10.2228 11.5887 10.8082 11.0358 10.8082 10.3531C10.8082 9.67043 10.2228 9.11752 9.49995 9.11752ZM8.51873 6.33731V5.56506C8.51873 5.13881 8.15236 4.79282 7.70106 4.79282C7.24977 4.79282 6.8834 5.13884 6.8834 5.56506V6.33731L2.47095 10.7887C2.16689 11.0698 1.97713 11.462 1.97713 11.8946V13.1333C1.97713 13.816 2.56264 14.3689 3.28545 14.3689H3.61254V15.1412C3.61254 15.5675 3.97895 15.9134 4.43025 15.9134C4.88154 15.9134 5.24792 15.5675 5.24792 15.1412V14.3689H13.752V15.1412C13.752 15.5675 14.1182 15.9134 14.5697 15.9134C15.021 15.9134 15.3873 15.5675 15.3873 15.1412V14.3689H15.7144C16.4373 14.3689 17.0227 13.816 17.0227 13.1333V11.8946C17.0227 11.462 16.833 11.0698 16.5289 10.7887L12.1166 6.33731V5.56506C12.1166 5.13881 11.7502 4.79282 11.2989 4.79282C10.8476 4.79282 10.4812 5.13884 10.4812 5.56506V6.33731H8.51873ZM9.49995 7.88189C10.9456 7.88189 12.1166 8.98777 12.1166 10.3531C12.1166 11.7185 10.9457 12.8244 9.49995 12.8244C8.05426 12.8244 6.88336 11.7185 6.88336 10.3531C6.88336 8.98774 8.05426 7.88189 9.49995 7.88189Z" fill="#FFD74B"/>
</svg>
